<svg width="36" height="36" viewBox="0 0 36 36" fill="none" xmlns="http://www.w3.org/2000/svg">
<circle cx="18" cy="18" r="18" fill="black"/>
<path d="M18.2113 5.99999C18.1982 6.07077 18.2471 6.04546 18.2921 6.04687C19.4905 6.08694 20.455 6.2646 21.609 6.56249C21.6163 6.56437 21.6252 6.56062 21.6325 6.56249C21.6655 6.61358 21.7564 6.62976 21.8143 6.65015C22.4929 6.88944 23.1693 7.15429 23.8056 7.49343C23.8323 7.50772 23.8787 7.59772 23.9291 7.54663C24.7445 8.00765 25.4694 8.52983 26.1552 9.16358C26.1632 9.17108 26.1704 9.17952 26.1786 9.18702C26.1955 9.20272 26.2098 9.21913 26.2255 9.2339C26.3591 9.39585 26.5032 9.55077 26.6708 9.67921C26.6783 9.68741 26.687 9.69444 26.6943 9.70265C26.7015 9.71085 26.7104 9.71788 26.7177 9.72608C26.7454 9.75749 26.7845 9.76522 26.8114 9.81983C26.8159 9.82897 26.8079 9.85265 26.8119 9.86694C26.8253 9.86694 26.8332 9.8428 26.8349 9.84304C26.9141 9.85757 27.6674 10.8426 27.7679 10.984C28.0271 11.348 28.2596 11.7251 28.4753 12.1162C28.4345 12.1416 28.5093 12.2585 28.5245 12.2843C28.7849 12.72 29.0066 13.2436 29.2016 13.7098C29.241 13.8037 29.282 13.8954 29.3188 13.991C29.2738 14.0119 29.3087 14.066 29.3181 14.0969C29.4409 14.4982 29.54 14.9025 29.6593 15.304C29.6708 15.3426 29.6546 15.3872 29.7172 15.3738C29.7177 15.3816 29.7161 15.3898 29.7172 15.3973C29.7318 15.4973 29.721 15.6363 29.7524 15.7734C29.7615 15.8128 29.7519 15.8557 29.811 15.8426C29.8121 15.858 29.81 15.874 29.811 15.8894C29.8112 15.8937 29.785 15.9213 29.7861 15.9687C29.7873 16.016 29.8046 16.0875 29.8344 16.1238C29.8346 16.1316 29.8339 16.1395 29.8344 16.1473C29.8436 16.3176 29.8689 16.4819 29.8815 16.6519C29.8848 16.6966 29.8553 16.7461 29.9282 16.7332C29.9324 16.7794 29.9239 16.8276 29.9282 16.8738C29.9282 16.875 29.9265 16.8792 29.9282 16.8973C29.9293 16.9109 29.9493 16.938 29.9516 16.9676C29.8879 17.1 29.9467 17.2676 29.9525 17.4002C29.957 17.5019 29.9476 17.6051 29.9516 17.707C29.9535 17.7523 29.9275 17.801 29.9985 17.7879V18.2801C29.9277 18.2669 29.953 18.3159 29.9516 18.3609C29.9387 18.7491 29.9075 19.1344 29.8813 19.522C29.8808 19.5298 29.8818 19.5377 29.8813 19.5455C29.8187 19.6802 29.8276 19.8469 29.811 19.9908C29.81 19.9985 29.8119 20.0065 29.811 20.0142C29.8084 20.0355 29.7925 20.0824 29.7875 20.1314C29.7868 20.1391 29.7882 20.1471 29.7875 20.1548C29.7229 20.2179 29.7489 20.3119 29.7407 20.3892C29.7397 20.3969 29.7416 20.4049 29.7407 20.4126C29.7402 20.4164 29.7219 20.4366 29.7172 20.483C29.7165 20.4907 29.7177 20.4987 29.7172 20.5064C29.6818 20.5228 29.6947 20.5692 29.6938 20.6001C29.6938 20.6079 29.6943 20.6158 29.6938 20.6236L29.2016 22.3109C29.0912 22.5984 28.9825 22.8886 28.8266 23.1546C28.775 23.243 28.7725 23.2336 28.7329 23.3421C28.7303 23.3489 28.7354 23.3587 28.7329 23.3655C28.6494 23.3618 28.6382 23.5172 28.6157 23.5765C28.6131 23.5833 28.6182 23.5931 28.6157 23.5999C28.5402 23.6088 28.5179 23.7614 28.4816 23.828C28.4647 23.8587 28.3665 23.9016 28.4284 23.9515C27.354 25.89 25.5915 27.5953 23.6246 28.6151C23.6106 28.568 23.5543 28.6151 23.5307 28.6266C23.4732 28.6544 23.4146 28.6828 23.3584 28.713C23.3256 28.7306 23.2843 28.7222 23.2968 28.7791C23.2902 28.7819 23.2799 28.7763 23.2733 28.7791C23.2518 28.788 23.2105 28.788 23.1707 28.8049C23.1013 28.8342 23.0125 28.9024 22.9452 28.9432C22.9384 28.9458 22.9286 28.9406 22.9218 28.9432C22.6707 29.0372 22.4326 29.1455 22.1954 29.2479C22.1825 29.2535 22.1668 29.2633 22.1486 29.2713C22.1329 29.2291 22.0761 29.2685 22.0492 29.2772C21.6936 29.3934 21.3289 29.5155 20.9769 29.6229C20.9692 29.6252 20.9525 29.6393 20.93 29.6463C20.9073 29.6016 20.8511 29.6311 20.8168 29.6383C20.6375 29.6758 20.4559 29.7148 20.2775 29.7567C20.2363 29.7663 20.1899 29.7441 20.2037 29.8106C20.196 29.8106 20.188 29.8106 20.1803 29.8106C20.1496 29.8099 20.0476 29.7319 20.0631 29.8341C20.0476 29.8333 20.0319 29.8343 20.0162 29.8341C19.4945 29.8244 18.8528 29.9292 18.2929 29.9512C18.2476 29.9531 18.1989 29.9271 18.212 29.9981H17.7667L17.8018 29.9512C17.488 29.9477 17.1554 29.944 16.8529 29.9278C16.7985 29.925 16.7432 29.9299 16.6888 29.9278C16.7019 29.8521 16.6504 29.8877 16.6068 29.8821C16.3199 29.8444 16.0372 29.7916 15.7518 29.7513C15.7159 29.7464 15.6578 29.7185 15.6343 29.7637C15.5814 29.7534 15.5197 29.7506 15.4703 29.7403C15.4836 29.6782 15.4393 29.6937 15.4004 29.6826C14.9066 29.543 14.4149 29.4269 13.9239 29.2718C13.9168 29.2694 13.9075 29.2741 13.9004 29.2718L12.7902 28.8002C12.4482 28.6174 12.1143 28.4531 11.7967 28.2419L11.6507 28.1937C10.9464 27.7537 10.352 27.289 9.75246 26.7173C9.74449 26.7098 9.73699 26.7016 9.72902 26.6939C9.68051 26.6473 9.63574 26.6001 9.5884 26.5533C9.54973 26.5151 9.50918 26.4748 9.47121 26.4361C8.6884 25.6409 8.10129 24.8794 7.54957 23.9051C7.60348 23.8549 7.49801 23.7792 7.47457 23.734C7.27207 23.3449 7.07074 22.9158 6.89355 22.5223C6.84363 22.4116 6.79793 22.3071 6.75293 22.1941C6.7977 22.1737 6.76324 22.1191 6.75363 22.0882C6.70887 21.9476 6.63832 21.8114 6.58887 21.6785C6.3866 21.1331 6.26215 20.565 6.16699 19.9912C6.21059 19.9669 6.18809 19.9071 6.18363 19.8696C6.14027 19.4979 6.08684 19.162 6.07324 18.7833C6.0716 18.738 6.09715 18.6893 6.02637 18.7024C6.02637 18.6867 6.02637 18.6712 6.02637 18.6555C6.02637 18.6525 6.0498 18.6295 6.05074 18.5988C6.05473 18.4697 6.04605 18.3394 6.04957 18.2102L6.00293 18.2803V17.8819C6.05684 17.8655 6.04816 17.8214 6.05121 17.7776C6.12879 16.6312 6.23988 15.8522 6.50332 14.7375C6.51129 14.7035 6.53871 14.6461 6.49512 14.6241C6.52418 14.5359 6.55816 14.4525 6.58887 14.3662C6.84246 13.6533 7.13801 12.8876 7.49637 12.2166C7.51395 12.1837 7.63348 12.1097 7.57324 12.0462C7.89973 11.4691 8.47254 10.5366 8.95582 10.1011C8.99098 10.0694 9.06879 10.0758 9.04957 9.9839C9.07395 9.95905 9.09387 9.93772 9.11988 9.91358C9.18973 9.84866 9.30457 9.79194 9.33082 9.67921C9.4691 9.53296 9.60668 9.39585 9.7527 9.25733C9.83707 9.23601 9.91207 9.17647 9.9402 9.09327C10.8592 8.26101 11.8114 7.62679 12.9397 7.10132C12.9552 7.13249 13.0332 7.09804 13.0562 7.08866C13.6916 6.83483 14.2815 6.60491 14.9317 6.39819C14.938 6.39632 14.946 6.3778 14.9551 6.37476C14.9774 6.41905 15.0343 6.38929 15.0686 6.38319C15.1639 6.36585 15.2607 6.34265 15.354 6.31546C15.3927 6.30421 15.4372 6.31991 15.4239 6.25757C15.4316 6.25757 15.4396 6.25827 15.4473 6.25757C15.5858 6.24397 15.6681 6.25288 15.838 6.21351C15.8804 6.20366 15.9299 6.23647 15.9161 6.16382C15.9238 6.16358 15.9318 6.16452 15.9395 6.16382C15.9449 6.16335 16.0007 6.2121 16.0438 6.18772L16.8299 6.07007C16.9691 6.0628 17.0755 6.01616 17.2049 6.02319C17.3532 6.03116 17.5035 6.05202 17.6629 6.04663C17.7079 6.04522 17.7568 6.07054 17.7437 5.99976H18.2125L18.2113 5.99999ZM17.1451 6.04687V6.0703C17.1604 6.06257 17.1604 6.0546 17.1451 6.04687ZM27.9095 18.004C27.9095 12.5311 23.4732 8.09437 18.0008 8.09437C12.5284 8.09437 8.09215 12.5311 8.09215 18.004C8.09215 23.4769 12.5284 27.9136 18.0008 27.9136C23.4732 27.9136 27.9095 23.4769 27.9095 18.004Z" fill="#737373"/>
<path d="M27.9091 18.004C27.9091 23.4769 23.4729 27.9136 18.0005 27.9136C12.528 27.9136 8.0918 23.4769 8.0918 18.004C8.0918 12.5311 12.528 8.09439 18.0005 8.09439C23.4729 8.09439 27.9091 12.5311 27.9091 18.004ZM17.7609 8.53806C10.1107 8.90884 5.78273 17.9649 10.5155 24.0663C15.2229 30.1353 24.7533 27.8114 27.1029 20.787C29.2313 14.4244 24.4146 8.21533 17.7607 8.53806H17.7609Z" fill="#202020"/>
<path d="M17.7609 8.53806C24.4148 8.21532 29.2312 14.4246 27.1031 20.787C24.7533 27.8116 15.2231 30.1355 10.5157 24.0663C5.78271 17.9649 10.1107 8.90884 17.7609 8.53806ZM14.2507 17.6944C14.2507 17.696 14.2296 17.7066 14.227 17.7174C14.2411 17.7213 14.2668 17.7131 14.2741 17.7178C14.2851 17.7246 14.291 17.7368 14.2975 17.7413C14.313 17.7516 14.3625 17.7839 14.3679 17.7881C14.3765 17.7949 14.3829 17.8048 14.3913 17.8116C14.4143 17.8299 14.4262 17.8894 14.485 17.8819C14.4928 17.8899 14.5012 17.8964 14.5085 17.9053C14.5122 17.91 14.5005 17.9405 14.5108 17.9494C14.5249 17.9618 14.5636 17.9466 14.5788 17.9522C14.5849 17.9543 14.5957 17.9686 14.6022 17.9756C14.6655 18.0452 14.7642 18.1397 14.8514 18.2058C14.8952 18.2391 14.9444 18.2728 15.0007 18.2803C15.0236 18.3047 15.0473 18.3049 15.071 18.3506C15.0754 18.3593 15.0679 18.3832 15.0712 18.3975C15.0979 18.4017 15.0928 18.3738 15.0944 18.3741C15.2327 18.3933 15.2015 18.8407 15.1811 18.9413C15.0403 19.6399 14.6969 20.3899 14.5202 21.0926C14.5059 21.1491 14.4743 21.2243 14.4672 21.2738C14.4098 21.6748 14.7171 22.0195 15.1176 22.0299C15.1968 22.5954 15.7118 22.6584 16.1423 22.3866C16.7997 21.9715 17.425 21.4231 18.0855 21.0021C18.3933 20.8498 18.6091 20.9203 18.8742 21.0966C19.361 21.42 19.8323 21.8262 20.3123 22.166C20.6517 22.4063 20.9224 22.6566 21.367 22.4559C21.9822 22.1784 21.6855 21.5025 21.5444 21.0274C21.3928 20.5163 21.1563 19.9592 21.0337 19.4522C20.9707 19.1911 21.0213 19.0411 21.2097 18.8538C21.7465 18.3206 22.5464 17.8617 23.1192 17.3419C23.5664 16.9359 23.3988 16.3214 22.8035 16.241C22.7784 15.9842 22.5621 15.7688 22.3176 15.7076C21.5121 15.6488 20.6353 15.7669 19.8382 15.7029C19.7901 15.6992 19.755 15.6884 19.7104 15.6785C19.6938 15.57 19.653 15.4648 19.6172 15.3617C19.4306 14.8256 19.219 14.0759 18.9806 13.5844C18.881 13.3788 18.7394 13.2832 18.5154 13.2413C18.4188 12.982 18.2718 12.6987 17.9627 12.6574C17.5891 12.6077 17.3709 12.7957 17.2326 13.1184C16.9448 13.7897 16.7801 14.5899 16.481 15.2492C16.3626 15.5098 16.1468 15.6781 15.8566 15.7029C15.0768 15.7697 14.1633 15.619 13.3952 15.702C12.9415 15.7509 12.6827 16.2764 12.9515 16.6615C13.0999 16.8736 14.2401 17.6117 14.2507 17.6942V17.6944Z" fill="#444444"/>
<path d="M18.5157 13.2415C18.5774 13.4067 18.6175 13.5977 18.6793 13.7693C18.845 14.2282 19.033 14.8983 19.2451 15.3127C19.3435 15.5053 19.4994 15.6321 19.7108 15.6788C19.7553 15.6886 19.7905 15.6991 19.8385 15.7031C20.6357 15.7671 21.5125 15.649 22.318 15.7078C22.5627 15.769 22.7788 15.9844 22.8039 16.2413C22.831 16.5202 22.7003 16.6774 22.5104 16.8499C21.9521 17.3571 21.2115 17.7848 20.6713 18.2916C20.2623 18.6752 20.5646 19.1358 20.7013 19.5745C20.836 20.0077 21.1611 20.8188 21.208 21.2238C21.2837 21.8794 20.6675 22.2209 20.1111 21.8988C19.4797 21.5334 18.8652 20.9306 18.2326 20.5669C17.9584 20.4094 17.7423 20.3883 17.4582 20.5385C16.8153 20.9348 16.1914 21.5334 15.5474 21.9084C15.4016 21.9933 15.2905 22.0343 15.118 22.0298C14.7172 22.0195 14.4102 21.6748 14.4676 21.2738C14.4746 21.2243 14.5063 21.1491 14.5206 21.0926C14.6973 20.3899 15.0404 19.6399 15.1815 18.9413C15.2017 18.8407 15.2331 18.3933 15.0948 18.3741L15.0714 18.3506C15.0477 18.3049 15.024 18.3047 15.001 18.2803C14.9324 18.2074 14.8068 18.1123 14.7247 18.0462C14.6898 18.0181 14.6483 17.9824 14.6026 17.9756C14.596 17.9686 14.5853 17.9543 14.5792 17.9522C14.5679 17.9194 14.5431 17.9056 14.5089 17.9053C14.5016 17.8964 14.4932 17.8898 14.4854 17.8819C14.458 17.8531 14.4261 17.8313 14.3917 17.8116C14.3832 17.8048 14.3769 17.7949 14.3682 17.7881L14.2979 17.7413C14.2914 17.7368 14.2855 17.7246 14.2745 17.7178L14.251 17.6944C14.2405 17.6119 13.1003 16.8738 12.9519 16.6617C12.6828 16.2769 12.9418 15.7512 13.3956 15.7022C14.1636 15.6195 15.0772 15.7702 15.857 15.7031C16.1471 15.6783 16.363 15.5102 16.4814 15.2494C16.7804 14.5901 16.9452 13.7897 17.233 13.1187C17.3715 12.7959 17.5895 12.608 17.9631 12.6577C18.2722 12.6989 18.4192 12.9823 18.5157 13.2415Z" fill="#737373"/>
<path d="M15.1182 22.0298C15.2909 22.0343 15.4018 21.9933 15.5475 21.9084C16.1916 21.5334 16.8155 20.9348 17.4584 20.5385C17.7425 20.3883 17.9586 20.4094 18.2328 20.5669C18.8656 20.9304 19.4799 21.5334 20.1113 21.8988C20.6677 22.2206 21.2839 21.8794 21.2082 21.2238C21.1613 20.8188 20.8362 20.0076 20.7014 19.5745C20.565 19.1358 20.2625 18.6752 20.6714 18.2916C21.2117 17.7846 21.9523 17.3571 22.5106 16.8499C22.7004 16.6774 22.8314 16.5201 22.804 16.2412C23.3993 16.3216 23.5667 16.9362 23.1197 17.3421C22.5469 17.8619 21.747 18.3209 21.2103 18.8541C21.0218 19.0413 20.9712 19.1913 21.0343 19.4524C21.1568 19.9591 21.3931 20.5165 21.545 21.0276C21.6861 21.5027 21.9828 22.1787 21.3675 22.4562C20.9227 22.6568 20.652 22.4062 20.3129 22.1662C19.8329 21.8264 19.3615 21.4202 18.8747 21.0968C18.6094 20.9205 18.3936 20.85 18.0861 21.0023C17.4256 21.4233 16.8003 21.9717 16.1429 22.3868C15.7125 22.6584 15.1974 22.5956 15.1182 22.0301V22.0298Z" fill="#202020"/>
<path d="M19.7107 15.679C19.4993 15.6321 19.3434 15.5056 19.245 15.3129C19.0329 14.8983 18.8452 14.2282 18.6792 13.7695C18.6173 13.5982 18.5773 13.4072 18.5156 13.2417C18.7399 13.2837 18.8812 13.3793 18.9809 13.5849C19.219 14.0763 19.4309 14.8261 19.6174 15.3621C19.6533 15.4652 19.6941 15.5705 19.7107 15.679Z" fill="#202020"/>
<path d="M14.6025 17.9756C14.6482 17.9824 14.6897 18.018 14.7246 18.0462C14.8064 18.1123 14.9323 18.2074 15.001 18.2803C14.9447 18.2728 14.8955 18.2391 14.8517 18.2058C14.7645 18.1397 14.6658 18.0452 14.6025 17.9756Z" fill="#202020"/>
<path d="M14.5792 17.9522C14.5639 17.9466 14.525 17.9618 14.5112 17.9494C14.5009 17.9402 14.5126 17.91 14.5089 17.9053C14.5431 17.9055 14.5679 17.9194 14.5792 17.9522Z" fill="#202020"/>
<path d="M14.2746 17.7178C14.2671 17.7131 14.2416 17.7213 14.2275 17.7173C14.2301 17.7066 14.2514 17.696 14.2512 17.6944L14.2746 17.7178Z" fill="#202020"/>
<path d="M14.3682 17.7881C14.3628 17.7839 14.3133 17.7516 14.2979 17.7412L14.3682 17.7881Z" fill="#202020"/>
<path d="M14.4854 17.8819C14.4265 17.8894 14.4148 17.8298 14.3916 17.8116C14.4258 17.8312 14.4579 17.853 14.4854 17.8819Z" fill="#202020"/>
<path d="M15.0944 18.3741C15.0927 18.3741 15.0979 18.4017 15.0712 18.3975C15.0679 18.3832 15.0754 18.3593 15.0709 18.3506L15.0944 18.3741Z" fill="#202020"/>
</svg>
