<svg width="128" height="128" viewBox="0 0 128 128" fill="none" xmlns="http://www.w3.org/2000/svg">
<path d="M73.7416 124.35H65.6913C63.3533 124.006 61.0179 124.152 58.6798 124.35H57.1229C56.17 124.137 55.2197 124.137 54.2668 124.35H51.1503C49.7652 124.131 48.38 124.131 46.9949 124.35H44.9173C42.7875 124.032 40.624 124.165 38.489 123.913C31.0297 123.03 23.6824 121.697 16.809 118.492C14.687 117.503 12.6458 116.367 10.9847 114.659C7.99582 111.587 7.99582 108.208 11.0134 105.177C13.7159 102.464 17.1448 101.027 20.6545 99.741C21.4668 99.4441 22.2869 99.1577 23.1174 98.9182C24.0782 98.6422 24.0261 98.1918 23.4533 97.5435C22.1906 96.1168 20.7247 94.8957 19.4177 93.508C12.0288 85.6555 7.2564 76.4441 5.68644 65.7928C3.32498 49.7833 7.00385 35.2762 17.538 22.7946C26.0204 12.7447 36.8618 6.5612 49.8615 4.65277C65.3997 2.36943 79.5059 6.0535 91.7636 16.0643C96.3824 19.8369 100.324 24.2578 103.376 29.4155C104.068 30.5871 104.912 31.6129 105.914 32.5137C109.905 36.1015 113.202 40.2542 115.881 44.8912C119.744 51.5798 122.184 58.7579 122.788 66.4723C123.915 80.8936 120.27 93.9506 111.025 105.193C102.527 115.529 91.5944 121.804 78.3577 123.983C76.832 124.233 75.2699 124.077 73.7442 124.35H73.7416Z" fill="black"/>
<path d="M58.6797 124.35C61.0177 123.952 63.3531 123.608 65.6911 124.35H58.6797Z" fill="#E5E5E5"/>
<path d="M46.9922 124.35C48.3773 123.858 49.7624 123.993 51.1475 124.35H46.9922Z" fill="#3C3C3C"/>
<path d="M54.2646 124.35C55.2176 123.983 56.1679 123.858 57.1208 124.35H54.2646Z" fill="#2D2D2D"/>
<path d="M69.9583 24.604C95.1428 24.2916 118.099 45.542 116.846 73.7987C115.787 97.7361 96.2076 118.56 69.9114 118.531C43.5683 118.502 22.9401 97.5747 22.9375 71.4685C22.9375 45.2739 44.2452 24.4556 69.9583 24.6014V24.604Z" fill="#FEFEFE"/>
<path d="M88.4388 22.0265C75.1162 17.3608 61.8952 17.4806 48.9397 23.1043C35.9973 28.7229 26.8483 38.2364 21.1725 51.1632C20.7898 51.2023 20.6336 50.843 20.4123 50.6217C18.3242 48.5492 16.2673 46.4455 14.1532 44.3991C13.5804 43.8419 13.4685 43.3811 13.7419 42.6104C19.2328 27.2623 29.6081 16.8662 45.326 12.3906C60.9423 7.94106 75.1891 11.2216 87.8946 21.287C88.1107 21.4589 88.3945 21.6099 88.4388 22.0291V22.0265Z" fill="#FD4791"/>
<path d="M11.8284 50.8325C14.2446 53.2513 16.4238 55.4513 18.6264 57.6227C19.0091 58.0002 18.7722 58.3152 18.6993 58.6745C18.3192 60.5205 17.9443 62.369 17.5615 64.2436C15.588 62.3143 13.552 60.4137 11.6358 58.3985C11.102 57.8388 11.4223 56.8989 11.4561 56.1412C11.529 54.4749 11.6826 52.8112 11.8284 50.8325Z" fill="#FC4790"/>
<path d="M17.6995 79.8C15.4213 76.4466 14.0388 72.7729 12.9531 68.9092C13.5155 69.2372 16.7101 72.1897 16.9574 72.6375C17.3714 73.39 17.0928 74.2335 17.2074 75.0302C17.4339 76.6106 17.5432 78.2066 17.6995 79.7974V79.8Z" fill="#FA468E"/>
<path d="M46.5081 71.5234C46.1514 73.4475 45.7895 75.3715 45.438 77.2956C45.097 79.1493 44.7351 81.0005 44.4461 82.862C44.3654 83.3776 44.2716 83.5963 43.6962 83.5832C41.9232 83.5442 40.1476 83.5208 38.3745 83.5858C37.294 83.6249 37.5205 82.7657 37.419 82.2658C36.7837 79.1207 36.2161 75.9599 35.6433 72.8018C34.9794 69.1359 34.3311 65.4675 33.6776 61.799C33.6646 61.7261 33.6881 61.648 33.7011 61.5022C35.7293 61.5022 37.7601 61.5231 39.7883 61.4892C40.3663 61.4788 40.4678 61.6949 40.5277 62.226C40.9599 66.0741 41.4389 69.9144 41.905 73.7859C42.5819 73.096 42.3945 72.1353 42.5142 71.3256C42.9594 68.308 43.2823 65.2696 43.5999 62.2338C43.6572 61.6793 43.803 61.4814 44.3602 61.4918C45.9171 61.5178 47.4766 61.5231 49.0336 61.4918C49.6272 61.4788 49.799 61.648 49.8772 62.2781C50.3718 66.272 50.9368 70.2555 51.6033 74.2364C52.059 70.2633 52.5432 66.2954 52.939 62.3145C53.0119 61.5803 53.2774 61.4814 53.8867 61.4944C55.3994 61.5231 56.9251 61.609 58.4273 61.471C59.6614 61.359 59.5833 61.9865 59.4375 62.7806C58.9272 65.5144 58.4195 68.2507 57.8936 70.9819C57.1333 74.9315 56.3288 78.876 55.6155 82.8334C55.5035 83.4557 55.3395 83.5963 54.7589 83.5832C53.0718 83.5468 51.382 83.5155 49.6975 83.5963C48.9373 83.6327 48.7212 83.263 48.6196 82.685C47.9609 78.9749 47.3152 75.2622 46.6669 71.5495C46.6175 71.5417 46.5654 71.5338 46.5159 71.5234H46.5081Z" fill="black"/>
<path d="M90.3521 72.5257C90.3521 69.2374 90.399 65.9491 90.3235 62.6659C90.3001 61.6584 90.6073 61.4344 91.5498 61.4839C93.0599 61.5646 94.5778 61.5464 96.0878 61.4891C96.8715 61.4579 97.1423 61.6662 97.1136 62.4915C97.0512 64.3505 97.1371 66.212 97.0746 68.0684C97.0486 68.8521 97.2204 69.0864 98.0457 69.063C99.9698 69.0083 99.9724 69.063 99.9724 67.0868C99.9724 65.5299 99.9932 63.9729 99.962 62.416C99.949 61.799 100.043 61.4657 100.79 61.4891C102.519 61.5412 104.25 61.5386 105.979 61.4891C106.669 61.4683 106.734 61.7703 106.731 62.3327C106.716 69.1228 106.713 75.913 106.734 82.7031C106.734 83.3462 106.612 83.6092 105.896 83.5858C104.211 83.5285 102.521 83.5207 100.837 83.5858C100.027 83.617 99.9463 83.2759 99.9594 82.6068C99.9958 80.4875 99.9359 78.3682 99.9906 76.2489C100.011 75.4417 99.8396 75.1632 98.9622 75.2022C97.098 75.2803 97.0954 75.223 97.0954 77.0716C97.0954 78.9748 97.072 80.878 97.1084 82.7813C97.1215 83.4087 96.9262 83.5936 96.3065 83.5806C94.622 83.5441 92.9323 83.5285 91.2478 83.5858C90.4927 83.6118 90.3261 83.3592 90.3339 82.6433C90.3704 79.269 90.3495 75.8974 90.3495 72.5231L90.3521 72.5257Z" fill="black"/>
<path d="M61.2914 72.5933C61.2914 69.305 61.3226 66.0193 61.2705 62.7309C61.2549 61.8145 61.4111 61.4552 62.4474 61.4786C65.6888 61.5541 68.9329 61.5307 72.177 61.489C72.9685 61.4786 73.234 61.6817 73.1872 62.4992C73.1143 63.8349 73.1012 65.1835 73.1872 66.5192C73.2444 67.3914 72.8956 67.5189 72.1561 67.4877C70.9481 67.4356 69.7322 67.5267 68.5241 67.4564C67.553 67.3992 67.7483 68.0344 67.7769 68.5526C67.8055 69.0707 67.4384 69.8413 68.5319 69.7788C69.6098 69.7164 70.6929 69.7919 71.7734 69.7554C72.3905 69.7346 72.7263 69.8361 72.6925 70.5834C72.6326 71.8773 72.643 73.1791 72.6899 74.4757C72.7133 75.124 72.4686 75.2854 71.8671 75.2646C70.745 75.2255 69.615 75.3089 68.4955 75.236C67.4879 75.1709 67.7457 75.8582 67.7873 76.3399C67.8264 76.8241 67.3525 77.6391 68.4825 77.6C69.9066 77.5532 71.336 77.613 72.7628 77.5766C73.3277 77.561 73.51 77.725 73.4944 78.3004C73.4579 79.8131 73.4579 81.3284 73.4944 82.841C73.5074 83.4008 73.3538 83.5805 72.7732 83.5778C69.1854 83.5518 65.5951 83.5414 62.0074 83.5831C61.1352 83.5935 61.2914 83.0806 61.2914 82.5781C61.2914 79.2481 61.2914 75.9181 61.2914 72.5855V72.5933Z" fill="black"/>
<path d="M78.1544 75.3689C78.1544 72.9475 78.1336 70.5288 78.1674 68.1075C78.1778 67.4409 78.0034 67.1962 77.3056 67.2274C76.3267 67.2691 74.9754 67.5763 74.4573 67.0738C73.8298 66.462 74.2776 65.1159 74.2672 64.0875C74.2412 61.5048 74.2594 61.5048 76.876 61.5048C80.5054 61.5048 84.1348 61.5282 87.7642 61.4865C88.5609 61.4787 88.8213 61.6896 88.7796 62.5019C88.7119 63.7959 88.7223 65.0951 88.777 66.3891C88.8083 67.0973 88.5401 67.2353 87.8892 67.2639C86.8894 67.3108 85.546 66.7432 84.981 67.5451C84.5123 68.2116 84.8742 69.4639 84.8742 70.4559C84.8742 74.4758 84.8482 78.4958 84.8951 82.5157C84.9055 83.3593 84.6868 83.6274 83.8302 83.5884C82.2785 83.5181 80.7163 83.5077 79.1646 83.591C78.2559 83.6405 78.1205 83.2916 78.1362 82.4975C78.183 80.1204 78.1544 77.7433 78.1518 75.3662L78.1544 75.3689Z" fill="black"/>
<path d="M86.0413 20.4799C83.2372 19.7821 80.4722 19.1963 77.6733 18.7772C76.697 18.6314 75.7128 18.3606 74.7417 18.3996C72.2058 18.5064 69.7038 18.1211 67.1392 18.2825C61.138 18.6626 55.3814 19.9123 49.8436 22.1644C44.0845 24.5077 38.9137 27.7934 34.2663 31.9617C29.6189 36.1301 25.9192 40.9831 22.9355 46.4351C22.3549 47.4973 21.8316 48.5804 21.3421 49.6817C21.0896 50.2493 20.837 50.2753 20.4075 49.8406C18.4313 47.841 16.4526 45.8388 14.4348 43.8809C13.9193 43.3784 14.1719 42.9332 14.3307 42.4724C16.0621 37.411 18.5407 32.7506 21.8811 28.5614C28.2703 20.545 36.4221 15.1816 46.3053 12.5155C51.2079 11.1929 56.2458 10.7763 61.2968 11.1278C69.4929 11.7006 77.0485 14.2834 83.8803 18.8969C84.6197 19.3968 85.3253 19.9488 86.0465 20.4773L86.0413 20.4799Z" fill="#EE237A"/>
<path d="M12.2523 52.0771C14.2493 54.0689 16.0431 55.8628 17.8396 57.6514C18.1052 57.917 18.2171 58.2372 18.1547 58.5939C17.8995 60.0259 17.6417 61.4579 17.358 62.8846C17.2538 63.4027 16.9362 63.2153 16.7097 62.9888C15.2204 61.4917 13.6687 60.0467 12.2888 58.4533C11.5389 57.5863 11.8696 56.347 11.9946 55.316C12.1143 54.3397 12.1508 53.3607 12.2523 52.0771Z" fill="#EE237A"/>
<path d="M16.7208 77.4985C15.5856 75.1032 14.703 73.0281 14.0703 70.7969C16.3823 72.182 17.1373 73.9706 16.7208 77.4985Z" fill="#EF247A"/>
</svg>
