<svg width="512" height="512" viewBox="0 0 512 512" fill="none" xmlns="http://www.w3.org/2000/svg">
<circle cx="256" cy="256" r="235.5" fill="#FCF203" stroke="#FCB603" stroke-width="41"/>
<path d="M320.575 361.991H124.332C124.702 360.173 124.909 358.303 125.46 356.545C130.22 341.49 135.057 326.453 139.842 311.406C151.281 275.428 162.712 239.441 174.142 203.455C176.276 196.733 176.474 196.655 182.258 200.981C189.953 206.746 197.631 212.52 205.317 218.294C211.729 223.111 211.669 223.094 209.276 230.548C200.092 259.115 190.926 287.682 181.811 316.267C180.365 320.808 180.735 321.274 185.486 321.274C232.817 321.299 280.139 321.256 327.469 321.342C331.274 321.342 333.107 319.903 334.217 316.318C338.134 303.711 342.334 291.181 346.396 278.617C350.115 267.121 351.483 267.965 338.839 267.957C308.577 267.948 278.314 267.957 248.06 267.948C241.088 267.948 240.856 267.578 243.025 260.813C245.134 254.255 247.216 247.68 249.334 241.13C250.774 236.684 253.89 234.458 258.681 234.452C290.803 234.452 322.933 234.383 355.055 234.521C359.204 234.538 361.227 233.116 362.423 229.135C365.685 218.277 369.317 207.531 372.803 196.733C374.766 190.658 374.611 190.408 368.276 190.408C338.736 190.399 309.188 190.408 279.648 190.408C223.142 190.408 166.636 190.408 110.131 190.373C108.366 190.373 105.672 191.278 105.078 189.33C104.502 187.435 107.256 186.685 108.667 185.625C124.47 173.715 140.333 161.866 156.179 150H388.571C399.804 158.669 411.165 167.158 423 174.991V176.714C422.311 178.446 421.52 180.136 420.934 181.902C416.364 195.819 411.725 209.711 407.378 223.697C406.164 227.601 403.995 229.945 400.355 231.711C386.79 238.269 373.363 245.095 359.884 251.833C354.823 254.367 354.797 254.591 359.178 257.84C367.596 264.079 375.919 270.447 384.535 276.402C388.167 278.91 388.761 281.4 387.392 285.442C383.14 297.946 378.596 310.415 375.42 323.204C372.932 333.2 367.975 339.879 358.145 342.921C356.656 343.377 355.288 344.248 353.885 344.972C342.807 350.711 331.317 355.632 320.566 362L320.575 361.991Z" fill="#FCB603"/>
</svg>
