<svg width="64" height="64" viewBox="0 0 64 64" fill="none" xmlns="http://www.w3.org/2000/svg">
<g id="Group 882">
<g id="Group 882_2">
<mask id="mask0_9687_5066" style="mask-type:alpha" maskUnits="userSpaceOnUse" x="0" y="0" width="64" height="64">
<path id="Vector" d="M32 64C49.6731 64 64 49.6731 64 32C64 14.3269 49.6731 0 32 0C14.3269 0 0 14.3269 0 32C0 49.6731 14.3269 64 32 64Z" fill="black"/>
</mask>
<g mask="url(#mask0_9687_5066)">
<g id="Group">
<path id="Vector_2" d="M32 64C49.6731 64 64 49.6731 64 32C64 14.3269 49.6731 0 32 0C14.3269 0 0 14.3269 0 32C0 49.6731 14.3269 64 32 64Z" fill="#230047"/>
<g id="Group_2">
<path id="Vector_3" d="M23.2069 49.4486C14.1473 65.21 1.30497 63.6384 -0.0435448 63.4042C-3.01077 62.8881 -5.93524 58.2565 -3.1031 53.1477C-3.31401 53.7508 -3.47243 54.1604 -3.57496 54.3373C-4.9298 56.6752 -0.0182748 63.8945 8.50534 59.0029C17.4741 53.8567 20.4977 28.8564 21.3423 19.1844C27.0289 23.3772 31.3908 35.2107 23.2069 49.4491V49.4486Z" fill="#FAAC01"/>
<path id="Vector_4" d="M8.50562 59.003C-0.0179932 63.8941 -4.92952 56.6748 -3.57468 54.3373C-3.47215 54.16 -3.31373 53.7508 -3.10282 53.1477C-2.70774 52.4353 -2.18583 51.7142 -1.50793 50.9964C5.75659 43.3033 5.08111 32.9632 10.6987 24.6461C16.3159 16.329 17.3786 17.0866 19.7783 18.2383C20.3123 18.4944 20.8362 18.8108 21.3426 19.1845C20.498 28.8564 17.4749 53.8567 8.50562 59.003Z" fill="#EDE658"/>
<path id="Vector_5" d="M15.9148 18.5449L20.1382 19.8511L21.5941 19.4118L21.8308 17.7538C21.8308 17.7538 22.5592 15.775 22.272 15.1923C21.8245 14.2846 19.435 13.7 18.4403 13.8861C18.0909 13.9517 17.3518 14.8006 17.3518 14.8006L16.4809 17.9793L15.9148 18.5454V18.5449Z" fill="#7C2828"/>
<path id="Vector_6" d="M15.9148 18.5449L16.4809 17.9788L17.3518 14.8002C17.3518 14.8002 19.7465 15.671 20.3564 15.671C20.9663 15.671 19.9647 18.0225 20.1387 18.7189C20.3127 19.4158 20.1387 19.8512 20.1387 19.8512L15.9153 18.5449H15.9148Z" fill="#FAAC01"/>
<path id="Vector_7" d="M46.0763 55.5993C32.6023 85.0631 10.3957 75.1915 10.3957 75.1915C10.3957 75.1915 4.29363 70.142 7.77694 63.3474C7.54805 64.1351 7.36971 64.6716 7.24287 64.9078C5.56245 68.0237 13.7872 76.5862 25.6935 69.4028C38.2214 61.8448 39.2822 29.8584 39.2132 17.5215C48.1693 22.1638 54.9605 36.1724 46.0763 55.5988V55.5993Z" fill="#E09500"/>
<path id="Vector_8" d="M25.6932 69.4028C13.7874 76.5857 5.56262 68.0237 7.24256 64.9077C7.36939 64.6716 7.54774 64.1351 7.77662 63.3473C8.26257 62.3997 8.93465 61.4264 9.83609 60.4394C19.5046 49.8578 17.2221 36.4547 23.6289 24.8312C28.1439 16.6395 33.7557 16.7036 35.1751 16.9617C36.0241 17.1162 38.415 17.108 39.2129 17.5215C39.2819 29.8584 38.2211 61.8448 25.6932 69.4028Z" fill="#FFFD5D"/>
<path id="Vector_9" d="M32.918 17.5424L39.1746 19.4774L41.3313 18.8263L41.6816 16.3703C41.6816 16.3703 42.7609 13.439 42.3352 12.5755C41.6724 11.2308 38.1327 10.3644 36.6588 10.6404C36.1413 10.7371 35.0464 11.9947 35.0464 11.9947L33.7562 16.7036L32.9175 17.5424H32.918Z" fill="#7C2828"/>
<path id="Vector_10" d="M32.918 17.5424L33.7567 16.7036L35.0469 11.9948C35.0469 11.9948 38.5944 13.285 39.4978 13.285C40.4012 13.285 38.9171 16.7683 39.1751 17.7999C39.4331 18.8321 39.1751 19.477 39.1751 19.477L32.9185 17.5419L32.918 17.5424Z" fill="#FAAC01"/>
<path id="Vector_11" d="M57.0886 61.8239C45.6167 82.9614 36.1431 74.8212 35.369 73.8537C34.0297 72.1796 32.8532 71.0798 34.2955 64.2279C34.0676 64.8047 38.8265 60.7213 38.7235 60.8889C37.357 63.1015 36.595 72.822 43.2642 70.45C52.2792 67.2442 55.9612 41.6724 57.335 32.3032C62.1814 36.6394 64.6525 47.8872 57.0891 61.8244L57.0886 61.8239Z" fill="#FAAC01"/>
<path id="Vector_12" d="M43.2634 70.4496C37.4325 72.6923 33.9142 71.9254 33.6911 69.5316C33.5196 67.6889 33.6902 63.7118 34.7685 62.2073C41.8187 52.3736 41.8381 44.9662 47.4174 37.1317C52.9961 29.2972 53.9034 30.082 55.9881 31.3114C56.4522 31.585 56.9027 31.9164 57.3347 32.3028C61.6859 47.8586 52.1943 67.0144 43.2639 70.4496H43.2634Z" fill="#FFFD5D"/>
<path id="Vector_13" d="M51.6704 31.9548L56.0493 33.3091L57.5587 32.8533L57.8041 31.1345C57.8041 31.1345 58.5593 29.0828 58.2614 28.4788C57.7973 27.5375 55.3199 26.9315 54.2887 27.1244C53.9267 27.1925 53.1603 28.0725 53.1603 28.0725L52.2574 31.3683L51.6704 31.9553V31.9548Z" fill="#7C2828"/>
<path id="Vector_14" d="M51.6704 31.9548L52.2574 31.3678L53.1603 28.072C53.1603 28.072 55.6431 28.9749 56.2753 28.9749C56.9075 28.9749 55.869 31.413 56.0498 32.1351C56.2306 32.8572 56.0498 33.3087 56.0498 33.3087L51.6709 31.9543L51.6704 31.9548Z" fill="#FAAC01"/>
<path id="Vector_15" d="M-4.49292 59.4622L-1.33471 61.1844L1.56886 60.5459L-0.0270123 63.4178L-1.43044 63.7687L-4.39719 62.5883L-4.49292 59.4622Z" fill="#7A2925"/>
<path id="Vector_16" d="M1.56886 60.5458L-1.33471 61.1844L-4.49292 59.4622L-2.72405 58.3309L1.56886 60.5458Z" fill="#FFC757"/>
<path id="Vector_17" d="M23.2798 37.1739C23.2705 37.1239 22.3662 32.0914 22.4259 26.0539C22.4614 22.4982 22.8191 19.2899 23.4887 16.5175C24.3338 13.0192 25.6838 10.2031 27.4998 8.14797C30.1885 5.10542 33.9085 3.69761 38.5567 3.96294C44.3162 4.29193 49.4303 7.52303 52.9584 13.061C54.5766 15.6015 55.7808 18.56 56.3488 21.3907C56.9038 24.1557 56.829 26.6327 56.1384 28.3651L55.2355 28.005C56.5719 24.6529 55.2404 18.4526 52.1385 13.5829C50.1952 10.5325 45.8396 5.35228 38.5013 4.9329C34.1666 4.68507 30.7105 5.98305 28.2292 8.78991C24.3372 13.1931 23.4537 20.6039 23.3983 26.0456C23.3376 31.9937 24.2269 36.9494 24.2361 36.999L23.2798 37.1735V37.1739Z" fill="url(#paint0_radial_9687_5066)"/>
<path id="Vector_18" d="M22.9479 37.691C22.7491 37.6487 18.0227 36.633 13.3484 34.1785C10.5804 32.725 8.41692 31.0679 6.91775 29.2524C5.01039 26.9427 4.17649 24.3759 4.43939 21.6239C4.57546 20.1991 5.10223 18.6858 6.00562 17.1254C6.8191 15.7201 7.91882 14.3273 9.18618 13.0979C10.4273 11.8937 11.7787 10.8926 13.0947 10.203C14.504 9.46439 15.8345 9.10867 16.9434 9.17427C18.3182 9.25543 20.608 10.0752 20.5031 14.6505L19.5316 14.6281C19.5666 13.0993 19.3202 11.9393 18.7983 11.1798C18.36 10.5422 17.7171 10.1938 16.8861 10.1447C15.9536 10.0893 14.7985 10.4076 13.5462 11.0641C12.3118 11.7109 11.0386 12.6556 9.86311 13.7957C7.30992 16.2726 5.64456 19.2335 5.40741 21.7167C4.97345 26.2584 7.79198 30.1587 13.7843 33.3096C18.3401 35.7054 23.1019 36.7302 23.1496 36.7404L22.9484 37.6914L22.9479 37.691Z" fill="url(#paint1_radial_9687_5066)"/>
<path id="Vector_19" d="M32.9543 37.0826C32.9276 37.0388 30.2582 32.6449 28.638 27.261C27.6807 24.0794 27.2686 21.1734 27.4139 18.6232C27.5981 15.3877 28.6808 12.7184 30.6319 10.6905C32.0115 9.25642 33.2638 8.26605 34.3533 7.74657C35.3607 7.26596 36.2636 7.16828 37.0358 7.45548C39.1847 8.25487 39.3936 11.694 39.4014 11.8397L38.431 11.8922C38.3853 11.0734 37.9849 8.84385 36.6956 8.36567C35.5007 7.92248 33.6463 8.95902 31.3327 11.364C27.2677 15.5894 28.1268 22.1789 29.5638 26.9626C31.1456 32.2299 33.7576 36.532 33.7838 36.5748L32.9548 37.0821L32.9543 37.0826Z" fill="url(#paint2_radial_9687_5066)"/>
<path id="Vector_20" d="M6.46536 34.0371C6.46536 34.0371 17.8235 41.7307 26.4745 44.8953C35.5807 48.226 61.4592 50.111 61.4592 50.111C61.4592 50.111 60.3959 55.3408 59.0474 57.7667C57.66 60.2621 33.1111 56.9537 24.2741 54.1799C16.5124 51.7438 4.4506 44.6387 3.78387 42.2172C3.11714 39.7957 6.46536 34.0371 6.46536 34.0371Z" fill="#410096"/>
<path id="Vector_21" d="M26.5962 62.372C34.3622 62.372 40.6577 56.0765 40.6577 48.3105C40.6577 40.5445 34.3622 34.249 26.5962 34.249C18.8302 34.249 12.5347 40.5445 12.5347 48.3105C12.5347 56.0765 18.8302 62.372 26.5962 62.372Z" fill="#230047"/>
<path id="Vector_22" d="M26.5965 59.1473C32.5815 59.1473 37.4333 54.2955 37.4333 48.3105C37.4333 42.3256 32.5815 37.4738 26.5965 37.4738C20.6115 37.4738 15.7598 42.3256 15.7598 48.3105C15.7598 54.2955 20.6115 59.1473 26.5965 59.1473Z" fill="url(#paint3_radial_9687_5066)"/>
<g id="Group_3">
<g id="Group_4">
<path id="Vector_23" d="M31.4256 43.9491C29.7845 46.0095 27.4607 47.0402 26.449 47.4139C26.2278 47.4956 25.9674 47.2881 25.9975 47.0543C26.135 45.9847 26.62 43.4889 28.2606 41.4289C29.9017 39.3685 32.2255 38.3378 33.2372 37.9641C33.4583 37.8825 33.7188 38.09 33.6887 38.3237C33.5512 39.3933 33.0662 41.8887 31.4256 43.9491Z" fill="url(#paint4_linear_9687_5066)"/>
<path id="Vector_24" d="M33.6892 38.3237C33.6945 38.281 33.6877 38.2396 33.6756 38.1998C33.4272 39.4526 32.8548 41.3697 31.5466 43.0127C29.9055 45.0731 27.5817 46.1038 26.57 46.4775C26.3897 46.5441 26.1856 46.4173 26.1321 46.2418C26.0689 46.5601 26.0257 46.8376 25.998 47.0548C25.9679 47.2886 26.2283 47.4961 26.4494 47.4144C27.4612 47.0407 29.785 46.01 31.4261 43.9501C33.0672 41.8896 33.5516 39.3943 33.6892 38.3247V38.3237Z" fill="#9B2415"/>
</g>
<g id="Group_5">
<path id="Vector_25" d="M21.8504 49.0346C20.0184 49.0394 18.4478 48.0709 17.8049 47.6102C17.6644 47.5097 17.6634 47.2341 17.8034 47.1326C18.4439 46.6685 20.0091 45.6912 21.8412 45.6864C23.6732 45.6815 25.2438 46.65 25.8867 47.1107C26.0272 47.2113 26.0281 47.4868 25.8882 47.5884C25.2477 48.0525 23.6825 49.0297 21.8504 49.0346Z" fill="url(#paint5_linear_9687_5066)"/>
<path id="Vector_26" d="M25.8882 47.5884C25.9139 47.5699 25.9334 47.5442 25.9494 47.5155C25.1617 48.0029 23.872 48.6245 22.4112 48.6284C20.5792 48.6332 19.0086 47.6647 18.3656 47.204C18.251 47.1219 18.231 46.9246 18.303 46.7992C18.1027 46.9231 17.9331 47.0388 17.8034 47.1326C17.6634 47.2342 17.6644 47.5092 17.8049 47.6103C18.4478 48.071 20.0179 49.0395 21.8504 49.0346C23.6825 49.0297 25.2477 48.0525 25.8882 47.5884Z" fill="#9B2415"/>
<g id="Group_6">
<path id="Vector_27" d="M26.9731 48.196C27.3803 47.6848 27.296 46.9404 26.7848 46.5332C26.2737 46.126 25.5292 46.2103 25.122 46.7215C24.7148 47.2326 24.7991 47.9771 25.3103 48.3843C25.8215 48.7914 26.5659 48.7072 26.9731 48.196Z" fill="url(#paint6_linear_9687_5066)"/>
<path id="Vector_28" opacity="0.35" d="M19.7914 46.7745C19.4143 46.9037 19.1004 47.0728 19.0747 46.8605C19.0489 46.6476 19.376 46.5402 19.7448 46.3896C20.6317 46.0271 22.5832 46.0173 22.609 46.2297C22.6348 46.4421 20.881 46.4003 19.7914 46.7745Z" fill="#E5DCDC"/>
<path id="Vector_29" d="M27.225 47.3342C27.1837 47.482 27.1128 47.6234 27.0112 47.7507C26.604 48.2619 25.8595 48.3465 25.3483 47.9393C25.0888 47.7327 24.9401 47.4392 24.909 47.1335C24.7841 47.5782 24.9274 48.0739 25.3108 48.38C25.8221 48.7872 26.5665 48.7027 26.9738 48.1915C27.1745 47.9397 27.2551 47.6312 27.225 47.3342Z" fill="#9B2415"/>
</g>
</g>
</g>
</g>
</g>
</g>
</g>
</g>
<defs>
<radialGradient id="paint0_radial_9687_5066" cx="0" cy="0" r="1" gradientUnits="userSpaceOnUse" gradientTransform="translate(39.5704 20.5529) scale(16.8859 16.8859)">
<stop stop-color="#EFD9BD"/>
<stop offset="0.33" stop-color="#EDD6BB"/>
<stop offset="0.57" stop-color="#E6CCB6"/>
<stop offset="0.77" stop-color="#DCBDAF"/>
<stop offset="0.96" stop-color="#CDA7A4"/>
<stop offset="1" stop-color="#C9A1A1"/>
</radialGradient>
<radialGradient id="paint1_radial_9687_5066" cx="0" cy="0" r="1" gradientUnits="userSpaceOnUse" gradientTransform="translate(13.7707 23.4292) rotate(180) scale(12.0701 12.0701)">
<stop stop-color="#EFD9BD"/>
<stop offset="0.33" stop-color="#EDD6BB"/>
<stop offset="0.57" stop-color="#E6CCB6"/>
<stop offset="0.77" stop-color="#DCBDAF"/>
<stop offset="0.96" stop-color="#CDA7A4"/>
<stop offset="1" stop-color="#C9A1A1"/>
</radialGradient>
<radialGradient id="paint2_radial_9687_5066" cx="0" cy="0" r="1" gradientUnits="userSpaceOnUse" gradientTransform="translate(33.3936 22.1886) scale(11.3562 11.3562)">
<stop stop-color="#EFD9BD"/>
<stop offset="0.33" stop-color="#EDD6BB"/>
<stop offset="0.57" stop-color="#E6CCB6"/>
<stop offset="0.77" stop-color="#DCBDAF"/>
<stop offset="0.96" stop-color="#CDA7A4"/>
<stop offset="1" stop-color="#C9A1A1"/>
</radialGradient>
<radialGradient id="paint3_radial_9687_5066" cx="0" cy="0" r="1" gradientUnits="userSpaceOnUse" gradientTransform="translate(26.5965 48.3105) scale(10.8368)">
<stop stop-color="#EFD9BD"/>
<stop offset="0.33" stop-color="#EDD6BB"/>
<stop offset="0.57" stop-color="#E6CCB6"/>
<stop offset="0.77" stop-color="#DCBDAF"/>
<stop offset="0.96" stop-color="#CDA7A4"/>
<stop offset="1" stop-color="#C9A1A1"/>
</radialGradient>
<linearGradient id="paint4_linear_9687_5066" x1="31.1039" y1="38.9023" x2="28.2595" y2="47.3431" gradientUnits="userSpaceOnUse">
<stop offset="0.21" stop-color="#DC4C25"/>
<stop offset="0.44" stop-color="#D84825"/>
<stop offset="0.65" stop-color="#CD3D26"/>
<stop offset="0.85" stop-color="#BC2A28"/>
<stop offset="1" stop-color="#AB182B"/>
</linearGradient>
<linearGradient id="paint5_linear_9687_5066" x1="24.9067" y1="48.539" x2="19.1504" y2="46.2205" gradientUnits="userSpaceOnUse">
<stop stop-color="#AB182B"/>
<stop offset="0.06" stop-color="#B01D2A"/>
<stop offset="0.33" stop-color="#C83727"/>
<stop offset="0.59" stop-color="#D64625"/>
<stop offset="0.79" stop-color="#DC4C25"/>
</linearGradient>
<linearGradient id="paint6_linear_9687_5066" x1="25.6147" y1="46.3572" x2="26.4804" y2="48.5602" gradientUnits="userSpaceOnUse">
<stop offset="0.21" stop-color="#DC4C25"/>
<stop offset="0.44" stop-color="#D84825"/>
<stop offset="0.65" stop-color="#CD3D26"/>
<stop offset="0.85" stop-color="#BC2A28"/>
<stop offset="1" stop-color="#AB182B"/>
</linearGradient>
</defs>
</svg>
